<svg width="168" height="44" viewBox="0 0 168 44" fill="none" xmlns="http://www.w3.org/2000/svg">
<path d="M0.323281 0.999997H10.0433C13.3233 0.999997 15.7833 1.88 17.4233 3.64C19.0633 5.4 19.8833 7.98 19.8833 11.38V15.52C19.8833 18.92 19.0633 21.5 17.4233 23.26C15.7833 25.02 13.3233 25.9 10.0433 25.9H6.92328V43H0.323281V0.999997ZM10.0433 19.9C11.1233 19.9 11.9233 19.6 12.4433 19C13.0033 18.4 13.2833 17.38 13.2833 15.94V10.96C13.2833 9.52 13.0033 8.5 12.4433 7.9C11.9233 7.3 11.1233 7 10.0433 7H6.92328V19.9H10.0433ZM33.0078 43.6C29.7678 43.6 27.2878 42.68 25.5678 40.84C23.8478 39 22.9878 36.4 22.9878 33.04V10.96C22.9878 7.6 23.8478 5 25.5678 3.16C27.2878 1.32 29.7678 0.399998 33.0078 0.399998C36.2478 0.399998 38.7278 1.32 40.4478 3.16C42.1678 5 43.0278 7.6 43.0278 10.96V33.04C43.0278 36.4 42.1678 39 40.4478 40.84C38.7278 42.68 36.2478 43.6 33.0078 43.6ZM33.0078 37.6C35.2878 37.6 36.4278 36.22 36.4278 33.46V10.54C36.4278 7.78 35.2878 6.4 33.0078 6.4C30.7278 6.4 29.5878 7.78 29.5878 10.54V33.46C29.5878 36.22 30.7278 37.6 33.0078 37.6ZM47.4913 0.999997H57.2713C60.6713 0.999997 63.1513 1.8 64.7113 3.4C66.2713 4.96 67.0513 7.38 67.0513 10.66V13.24C67.0513 17.6 65.6113 20.36 62.7313 21.52V21.64C64.3313 22.12 65.4513 23.1 66.0913 24.58C66.7713 26.06 67.1113 28.04 67.1113 30.52V37.9C67.1113 39.1 67.1513 40.08 67.2313 40.84C67.3113 41.56 67.5113 42.28 67.8313 43H61.1113C60.8713 42.32 60.7113 41.68 60.6313 41.08C60.5513 40.48 60.5113 39.4 60.5113 37.84V30.16C60.5113 28.24 60.1913 26.9 59.5513 26.14C58.9513 25.38 57.8913 25 56.3713 25H54.0913V43H47.4913V0.999997ZM56.4913 19C57.8113 19 58.7913 18.66 59.4313 17.98C60.1113 17.3 60.4512 16.16 60.4512 14.56V11.32C60.4512 9.8 60.1713 8.7 59.6113 8.02C59.0913 7.34 58.2513 7 57.0913 7H54.0913V19H56.4913ZM76.7333 7H69.8333V0.999997H90.2333V7H83.3333V43H76.7333V7ZM93.4288 0.999997H110.889V7H100.029V18.7H108.549V24.7H100.029V43H93.4288V0.999997ZM114.054 0.999997H120.654V37H131.514V43H114.054V0.999997ZM134.679 0.999997H141.279V43H134.679V0.999997ZM152.042 21.52L144.782 0.999997H151.742L156.182 14.56H156.302L160.862 0.999997H167.102L159.842 21.52L167.462 43H160.502L155.702 28.36H155.582L150.662 43H144.422L152.042 21.52Z" fill="#E50914"/>
</svg>
